<svg xmlns="http://www.w3.org/2000/svg" width="20" height="16" fill="none">
  <g fill="#787878" opacity=".35">
    <path d="M8.61 2c.701-.007 1.388.074 1.723.084 1.242.037 1.46.69 1.445 1.228-.023.787-.51 4.116.392 4.44 1.314-.73 2.196-3.001 2.837-4.44.325-.728.274-.764 1.022-.765L19 2.542c.716 0 .688-.027.917.277.533.707-1.683 3.65-2.399 4.463-1.32 1.501-.55 2.083-.337 2.289.986.956 1.938 1.947 2.53 2.862.47.727.276 1.404-.322 1.43l-3.187.136c-1.058.045-2.702-1.927-2.965-2.356-.212-.355-1.235-.799-1.331.107l-.135 1.264c-.098.903-.74.882-1.245.905-3.504.157-4.698-1.23-6.462-3.277a.116.116 0 0 1-.003-.004C2.768 8.735 1.533 6.82.51 4.528.204 3.84.042 3.336 0 2.802c.515-.418 2.322-.238 3.535-.266.332-.007.556.19.731.584.683 1.537 1.429 3.047 2.415 4.381.43.412.81.563.999-.274.11-.01.101-1.396.107-2.441.005-.718-.076-1.579-1.245-1.976.236-.644 1.165-.8 2.067-.81Z"/>
    <path d="M8.61 2c.701-.007 1.388.074 1.723.084 1.242.037 1.46.69 1.445 1.228-.023.787-.51 4.116.392 4.44 1.314-.73 2.196-3.001 2.837-4.44.325-.728.274-.764 1.022-.765L19 2.542c.716 0 .688-.027.917.277.533.707-1.683 3.65-2.399 4.463-1.32 1.501-.55 2.083-.337 2.289.986.956 1.938 1.947 2.53 2.862.47.727.276 1.404-.322 1.43l-3.187.136c-1.058.045-2.702-1.927-2.965-2.356-.212-.355-1.235-.799-1.331.107l-.135 1.264c-.098.903-.74.882-1.245.905-3.504.157-4.698-1.23-6.462-3.277l-.003-.004C2.768 8.735 1.533 6.82.51 4.528.204 3.84.042 3.336 0 2.802c.515-.418 2.322-.238 3.535-.266.332-.007.556.19.731.584.683 1.537 1.429 3.047 2.415 4.381.43.412.81.563.999-.274.11-.01.101-1.396.107-2.441.005-.718-.076-1.579-1.245-1.976.236-.644 1.165-.8 2.067-.81Z"/>
  </g>
</svg>
