<svg xmlns="http://www.w3.org/2000/svg" width="24" height="24" fill="none">
  <path fill="#787878" fill-rule="evenodd" d="m9.739 2.153-.337 2.375h5.196l-.337-2.374c-.074-.284-.283-.404-.438-.404h-3.646c-.156 0-.365.121-.438.403Zm6.374 2.375-.372-2.621a.803.803 0 0 0-.011-.062C15.528.96 14.777.25 13.823.25h-3.646c-.953 0-1.706.708-1.907 1.596a.753.753 0 0 0-.011.06l-.372 2.622H3a.75.75 0 1 0 0 1.5h18a.75.75 0 0 0 0-1.5h-4.887Zm3.16 3.059a.75.75 0 0 1 .673.82L18.938 18.67l-.003.037c-.074.75-.133 1.354-.219 1.843-.09.506-.216.946-.454 1.35a3.77 3.77 0 0 1-1.61 1.483c-.421.202-.868.287-1.374.327-.489.039-1.09.039-1.831.039h-2.894c-.741 0-1.341 0-1.831-.039-.506-.04-.952-.126-1.373-.328a3.77 3.77 0 0 1-1.612-1.484c-.237-.402-.364-.842-.453-1.348-.086-.49-.146-1.098-.22-1.85L4.053 8.406a.75.75 0 0 1 1.492-.147l1.007 10.264c.078.79.133 1.34.208 1.767.074.418.16.661.268.846.23.39.569.701.97.894.188.09.43.152.842.185.423.033.964.034 1.743.034h2.832c.78 0 1.32 0 1.743-.034.413-.033.654-.094.842-.184.4-.193.738-.503.969-.894v-.001c.11-.185.195-.428.269-.846.075-.427.13-.977.207-1.767L18.454 8.26a.75.75 0 0 1 .82-.673ZM10.2 9.417a.75.75 0 0 1 .75.75v6.11a.75.75 0 0 1-1.5 0v-6.11a.75.75 0 0 1 .75-.75Zm3.6 0a.75.75 0 0 1 .75.75v6.11a.75.75 0 0 1-1.5 0v-6.11a.75.75 0 0 1 .75-.75Z" clip-rule="evenodd"/>
</svg>
