<svg xmlns="http://www.w3.org/2000/svg" width="64" height="65" fill="none">
  <path fill="white" d="M12.8 10.102a6.4 6.4 0 0 0-6.4 6.4v11.747a14.482 14.482 0 0 1 3.2-2.922v-8.825a3.2 3.2 0 0 1 3.2-3.2h38.4a3.2 3.2 0 0 1 3.2 3.2v25.6a3.2 3.2 0 0 1-3.2 3.2H29.575c-.244.36-.502.712-.775 1.052v2.148h22.4a6.4 6.4 0 0 0 6.4-6.4v-25.6a6.4 6.4 0 0 0-6.4-6.4H12.8Zm3.2 11.2a1.6 1.6 0 0 1 1.6-1.6h28.8a1.6 1.6 0 1 1 0 3.2H17.6a1.6 1.6 0 0 1-1.6-1.6Zm1.6 27.2a11.2 11.2 0 1 1 0-22.4 11.2 11.2 0 0 1 0 22.4Zm-8 .774a14.4 14.4 0 0 0 8 2.426c2.96 0 5.712-.896 8-2.426v8.826a1.6 1.6 0 0 1-2.56 1.28l-4.48-3.36a1.6 1.6 0 0 0-1.92 0l-4.48 3.36a1.6 1.6 0 0 1-2.56-1.28v-8.826Zm24-16.774a1.6 1.6 0 1 0 0 3.2h12.8a1.6 1.6 0 0 0 0-3.2H33.6Z"/>
</svg>
