<svg xmlns="http://www.w3.org/2000/svg" width="24" height="24" fill="none">
  <path fill="#787878" fill-rule="evenodd" d="M4.883 3.222c-1.852.89-3.209 3.011-3.209 5.54 0 2.582 1.005 4.573 2.443 6.28 1.186 1.405 2.622 2.571 4.022 3.707.333.27.662.54.988.808.587.488 1.11.915 1.616 1.226.506.312.911.453 1.257.453.346 0 .752-.141 1.257-.453.506-.311 1.03-.738 1.616-1.226.325-.27.655-.538.988-.807 1.4-1.138 2.836-2.303 4.022-3.709 1.439-1.706 2.443-3.697 2.443-6.28 0-2.527-1.357-4.648-3.209-5.54-1.799-.865-4.217-.636-6.514 1.878a.837.837 0 0 1-.275.2.801.801 0 0 1-.93-.2C9.1 2.585 6.681 2.356 4.882 3.222ZM12 3.264C9.42.831 6.53.49 4.186 1.618 1.715 2.81 0 5.575 0 8.763c0 3.132 1.24 5.523 2.865 7.45 1.302 1.544 2.895 2.835 4.303 3.976.32.258.627.51.922.754.572.475 1.186.98 1.808 1.363C10.52 22.69 11.23 23 12 23c.77 0 1.48-.311 2.102-.694.623-.383 1.236-.888 1.808-1.363.295-.244.602-.496.922-.755 1.407-1.14 3-2.432 4.302-3.975C22.761 14.286 24 11.895 24 8.763c0-3.188-1.713-5.952-4.186-7.143C17.471.492 14.581.832 12 3.264Z" clip-rule="evenodd"/>
</svg>
