<svg xmlns="http://www.w3.org/2000/svg" width="24" height="24" fill="none">
  <path fill="#787878" fill-rule="evenodd" d="M0 2.808C0 2.362.366 2 .818 2h1.91c.375 0 .702.252.793.612l.663 2.619h18.998c.252 0 .49.114.645.31a.8.8 0 0 1 .149.693l-2.728 10.77a.816.816 0 0 1-.794.611H6.274a.816.816 0 0 1-.794-.611L2.089 3.615H.818A.813.813 0 0 1 0 2.808Zm4.593 4.038L6.912 16h12.904l2.318-9.154H4.594Zm1.68 12.924a.813.813 0 0 0-.818.807c0 .446.366.808.818.808a.813.813 0 0 0 .818-.808.813.813 0 0 0-.818-.808Zm-2.455.807c0-1.338 1.1-2.423 2.455-2.423s2.454 1.085 2.454 2.423S7.628 23 6.273 23c-1.356 0-2.455-1.085-2.455-2.423Zm16.636-.807a.813.813 0 0 0-.818.807c0 .446.367.808.819.808a.813.813 0 0 0 .818-.808.813.813 0 0 0-.819-.808ZM18 20.576c0-1.338 1.099-2.423 2.454-2.423 1.356 0 2.455 1.085 2.455 2.423S21.81 23 20.455 23C19.098 23 18 21.915 18 20.577Z" clip-rule="evenodd"/>
</svg>
