<svg xmlns="http://www.w3.org/2000/svg" width="26" height="22" fill="none">
  <path fill="#787878" d="m25.95 11.675-3.783-9.361a.715.715 0 0 0-.81-.425L13.709 3.57V.702a.699.699 0 0 0-.208-.496.713.713 0 0 0-1.002 0 .699.699 0 0 0-.208.496v3.182L4.337 5.639a.712.712 0 0 0-.504.425L.05 15.426a.708.708 0 0 0-.05.254c0 2.558 2.755 3.51 4.49 3.51 1.737 0 4.492-.952 4.492-3.51a.708.708 0 0 0-.051-.261L5.459 6.826l6.832-1.504v15.274h-2.127a.713.713 0 0 0-.502.205.699.699 0 0 0 0 .993.713.713 0 0 0 .502.206h5.672a.713.713 0 0 0 .502-.206.7.7 0 0 0-.502-1.198H13.71V5.01l6.643-1.462-3.283 8.127a.708.708 0 0 0-.05.261c0 2.558 2.754 3.51 4.49 3.51 1.736 0 4.491-.952 4.491-3.51a.708.708 0 0 0-.05-.26ZM4.49 17.787a4.394 4.394 0 0 1-2.065-.533c-.635-.367-.963-.84-1.003-1.448L4.494 8.21l3.073 7.596c-.114 1.613-2.298 1.981-3.076 1.981Zm17.02-3.744a4.396 4.396 0 0 1-2.067-.534c-.634-.366-.963-.84-1.003-1.448l3.073-7.595 3.072 7.595c-.114 1.613-2.298 1.982-3.076 1.982Z"/>
</svg>
