<svg xmlns="http://www.w3.org/2000/svg" width="12" height="12" fill="none">
  <path fill="#38AAFC" d="M0 .75A.75.75 0 0 1 .75 0H4.5a.75.75 0 0 1 .75.75V4.5a.75.75 0 0 1-.75.75H.75A.75.75 0 0 1 0 4.5V.75ZM0 7.5a.75.75 0 0 1 .75-.75H4.5a.75.75 0 0 1 .75.75v3.75a.75.75 0 0 1-.75.75H.75a.75.75 0 0 1-.75-.75V7.5ZM6.75.75A.75.75 0 0 1 7.5 0h3.75a.75.75 0 0 1 .75.75V4.5a.75.75 0 0 1-.75.75H7.5a.75.75 0 0 1-.75-.75V.75Zm0 6.75a.75.75 0 0 1 .75-.75h3.75a.75.75 0 0 1 .75.75v3.75a.75.75 0 0 1-.75.75H7.5a.75.75 0 0 1-.75-.75V7.5Z"/>
</svg>
