<svg width="15" height="15" viewBox="0 0 15 15" fill="none" xmlns="http://www.w3.org/2000/svg">
<path d="M1.91016 5.58941C1.91016 4.57043 2.15957 3.63137 2.65841 2.77223C3.13729 1.92308 3.79077 1.25375 4.61883 0.764236C5.46685 0.254745 6.3872 0 7.37989 0C8.37257 0 9.29292 0.254745 10.1409 0.764236C10.969 1.25375 11.6275 1.92308 12.1163 2.77223C12.6152 3.64136 12.8646 4.58042 12.8646 5.58941C12.8646 7.40759 12.0016 9.50549 10.2756 11.8831C9.50742 12.9421 8.65441 13.9361 7.7166 14.8651C7.62681 14.955 7.51457 15 7.37989 15C7.2452 15 7.12797 14.95 7.02821 14.8501C6.11035 13.8911 5.26233 12.8721 4.48415 11.7932C2.76815 9.38561 1.91016 7.31768 1.91016 5.58941ZM4.70862 5.3047C4.70862 5.79421 4.82834 6.24376 5.06778 6.65335C5.30722 7.06294 5.63147 7.38761 6.04051 7.62737C6.44956 7.86713 6.89602 7.98701 7.37989 7.98701C7.86376 7.98701 8.31021 7.86713 8.71926 7.62737C9.1283 7.38761 9.45504 7.06294 9.69947 6.65335C9.9439 6.24376 10.0661 5.7967 10.0661 5.31219C10.0661 4.82767 9.9439 4.38062 9.69947 3.97103C9.45504 3.56144 9.1283 3.23676 8.71926 2.997C8.31021 2.75724 7.86376 2.63736 7.37989 2.63736C6.89602 2.63736 6.44956 2.75724 6.04051 2.997C5.63147 3.23676 5.30722 3.56144 5.06778 3.97103C4.82834 4.38062 4.70862 4.82518 4.70862 5.3047Z" fill="#38AAFC"/>
</svg>
