<svg xmlns="http://www.w3.org/2000/svg" width="16" height="16" fill="none">
  <path fill="#787878" fill-rule="evenodd" d="M13.567 14.082v-.002l.015-.034L16 1.904v-.039c0-.303-.113-.567-.356-.725-.214-.139-.46-.149-.633-.136a2.184 2.184 0 0 0-.666.167l-.01.004L.853 6.443l-.004.001a1.857 1.857 0 0 0-.395.202c-.174.119-.503.398-.448.841.046.368.3.601.472.722.101.071.21.13.325.177l.026.011.008.003.005.002 2.36.791a1.42 1.42 0 0 0 .046.446l1.181 4.464a1.204 1.204 0 0 0 1.086.894 1.213 1.213 0 0 0 1.2-.737l1.844-1.964 3.168 2.419.045.02c.288.125.557.164.803.13.246-.033.44-.136.588-.252.17-.137.305-.312.395-.51l.006-.014.002-.005.001-.002Zm-9.15-4.75a.24.24 0 0 1 .105-.265l8-5.06s.47-.284.453 0c0 0 .084.05-.168.284-.239.223-5.702 5.475-6.255 6.007a.24.24 0 0 0-.062.11l-.892 3.388-1.181-4.464Z" clip-rule="evenodd" opacity=".35"/>
</svg>
