<svg xmlns="http://www.w3.org/2000/svg" width="64" height="65" fill="none">
  <path fill="white" stroke="white" stroke-linecap="round" stroke-linejoin="round" d="M38.393 23.137a2.11 2.11 0 0 1 2.822.145l.144.16a2.11 2.11 0 0 1 0 2.663l-.144.16-15.448 15.448a2.109 2.109 0 0 1-2.823.144l-.16-.144a2.109 2.109 0 0 1 0-2.983l15.448-15.448.16-.145Zm1.33 14.975a2.11 2.11 0 0 1 0 4.22h-.026a2.11 2.11 0 0 1 0-4.22h.027ZM24.302 22.664a2.11 2.11 0 0 1 0 4.219h-.026a2.11 2.11 0 0 1 0-4.219h.026Z"/>
  <path fill="white" fill-rule="evenodd" d="M32.478 3.178a8.091 8.091 0 0 0-.96 0l-.042.003c-1.526.117-2.737.808-3.783 1.627-.967.757-2.027 1.817-3.219 3.009l-.105.106c-1.186 1.185-1.41 1.36-1.563 1.436l-.175.073c-.17.055-.472.088-2.12.088h-.461c-1.866 0-3.526 0-4.866.18-1.457.196-2.927.647-4.13 1.847-1.207 1.204-1.658 2.678-1.853 4.135-.18 1.336-.179 2.99-.179 4.847v.479c0 1.724-.037 1.976-.095 2.139a3.772 3.772 0 0 1-.056.136c-.076.16-.23.368-1.446 1.584l-.106.106c-1.192 1.191-2.252 2.251-3.01 3.219-.818 1.045-1.51 2.256-1.626 3.782l-.003.042c-.019.32-.019.64 0 .96l.003.043c.117 1.526.808 2.737 1.627 3.782.757.968 1.817 2.027 3.009 3.22l.106.105c1.254 1.254 1.377 1.433 1.448 1.589l.007.014c.015.033.03.068.043.104.062.167.1.398.1 2.151v.46c0 1.866-.001 3.526.179 4.867.196 1.456.647 2.927 1.847 4.13 1.204 1.206 2.678 1.657 4.135 1.853 1.336.179 2.99.178 4.847.178h.48c1.768 0 1.987.04 2.15.1l.007.003c.036.013.068.026.098.04l.006.003c.163.075.349.204 1.597 1.452l.106.106c1.191 1.192 2.251 2.252 3.218 3.01 1.046.817 2.257 1.51 3.783 1.625h.003a6.93 6.93 0 0 0 1.039 0h.003c1.526-.116 2.737-.808 3.782-1.626.968-.757 2.027-1.817 3.219-3.01l.106-.105c1.248-1.248 1.434-1.377 1.596-1.452l.007-.003c.033-.016.068-.03.104-.044.167-.06.399-.099 2.151-.099h.46c1.867 0 3.526 0 4.867-.18 1.456-.195 2.927-.646 4.13-1.847 1.206-1.203 1.657-2.677 1.853-4.134.179-1.336.178-2.99.178-4.847v-.48c0-1.769.04-1.987.1-2.15l.003-.008c.013-.035.026-.068.04-.097l.003-.007c.075-.162.204-.348 1.452-1.596l.106-.106c1.192-1.192 2.252-2.252 3.009-3.219.818-1.045 1.51-2.256 1.626-3.782v-.003a6.955 6.955 0 0 0 0-1.04v-.002c-.116-1.526-.808-2.737-1.626-3.782-.757-.968-1.817-2.028-3.01-3.22l-.105-.105c-1.176-1.176-1.359-1.409-1.438-1.568l-.071-.17c-.055-.17-.089-.472-.089-2.12v-.46c0-1.867 0-3.527-.18-4.867-.195-1.457-.646-2.928-1.847-4.13-1.203-1.207-2.678-1.658-4.134-1.853-1.336-.18-2.99-.179-4.848-.179h-.479c-1.659 0-1.954-.034-2.12-.088l-.173-.072c-.159-.08-.396-.268-1.565-1.437l-.106-.106c-1.192-1.192-2.252-2.252-3.219-3.01-1.045-.818-2.256-1.51-3.782-1.626l-.043-.003Zm20.126 33.373c-.912.909-1.8 1.793-2.327 2.937l-.205.495.002-.005c-.438 1.18-.436 2.438-.433 3.714v.586c0 2.085-.005 3.381-.131 4.325-.114.85-.283 1.016-.331 1.064l-.003.003-.002.002c-.051.051-.22.22-1.071.335-.943.126-2.239.132-4.323.132h-.585c-1.281-.003-2.535-.005-3.718.433l-.01.003c-.16.06-.318.127-.474.199-1.146.527-2.03 1.415-2.94 2.328l-.196.197c-1.33 1.33-2.16 2.154-2.842 2.687-.62.485-.84.503-.896.507-.08.006-.16.006-.241 0-.056-.004-.277-.022-.897-.507-.68-.533-1.51-1.357-2.841-2.687l-.196-.197c-.91-.912-1.793-1.799-2.937-2.327a6.67 6.67 0 0 0-.49-.203c-1.181-.438-2.438-.436-3.715-.433h-.585c-2.086 0-3.382-.005-4.325-.131-.85-.114-1.016-.283-1.065-.331l-.002-.003-.003-.002c-.05-.051-.22-.22-.334-1.071-.127-.943-.132-2.239-.132-4.323v-.585c.002-1.281.005-2.535-.433-3.718l-.004-.01a6.936 6.936 0 0 0-.197-.47c-.524-1.146-1.414-2.033-2.319-2.933l-.207-.207c-1.33-1.33-2.154-2.16-2.687-2.841-.45-.575-.498-.807-.506-.882a2.666 2.666 0 0 1 0-.271c.008-.075.056-.307.506-.882.533-.68 1.357-1.51 2.687-2.841l.197-.196c.913-.91 1.802-1.796 2.33-2.944l.013-.03a8.07 8.07 0 0 0 .174-.42l.012-.03c.44-1.182.437-2.44.434-3.718v-.585c0-2.086.005-3.382.131-4.325.114-.85.282-1.017.33-1.065l.004-.002.002-.003c.05-.05.22-.22 1.071-.334.943-.127 2.238-.132 4.323-.132h.585c1.28.003 2.535.005 3.717-.433l.103-.04.293-.123.078-.034c1.149-.524 2.037-1.416 2.94-2.322l.207-.208c1.33-1.33 2.16-2.154 2.841-2.687.575-.45.807-.498.882-.506.09-.005.18-.005.27 0 .076.008.308.056.882.506.681.533 1.511 1.357 2.842 2.687l.196.196c.91.914 1.796 1.803 2.943 2.33.031.015.062.028.093.041l.296.123.092.036c1.182.44 2.44.437 3.717.434h.586c2.085 0 3.381.005 4.324.131.85.114 1.017.282 1.065.33l.003.004.003.002c.05.05.22.22.334 1.071.126.943.132 2.238.132 4.323v.585c-.003 1.28-.005 2.534.433 3.717.012.035.026.069.04.103l.123.293.037.085c.528 1.148 1.416 2.033 2.33 2.944l.197.196c1.33 1.33 2.154 2.16 2.687 2.841.485.62.503.841.507.897.006.08.006.16 0 .24-.004.056-.022.278-.507.898-.533.68-1.357 1.51-2.687 2.84l-.197.197Z" clip-rule="evenodd"/>
</svg>
