<svg xmlns="http://www.w3.org/2000/svg" width="64" height="65" fill="none">
  <path fill="white" d="m41.864 25.794-2.48-.413a2.517 2.517 0 0 0 2.48 2.927v-2.514Zm-36.872 0V23.28a2.514 2.514 0 0 0-2.514 2.514h2.514Zm6.704 36.034h38.079V56.8h-38.08v5.028ZM53.797 23.28H41.864v5.028h11.933V23.28Zm-9.452 2.926 2.701-16.207-4.96-.828-2.703 16.21 4.962.825ZM41.26 3.167h-.718v5.028h.714l.004-5.028ZM30.08 8.765l-8.43 12.648 4.184 2.788 8.43-12.647-4.183-2.789ZM18.166 23.28H4.992v5.028h13.173V23.28ZM2.478 25.794V52.61h5.028V25.794H2.478ZM58.815 54.42l4.023-20.112-4.928-.989-4.022 20.112 4.927.99ZM21.651 21.413a4.19 4.19 0 0 1-3.486 1.864v5.027a9.214 9.214 0 0 0 7.67-4.102l-4.184-2.79ZM47.046 9.999a5.88 5.88 0 0 0-1.31-4.758 5.866 5.866 0 0 0-4.475-2.074l-.004 5.028a.837.837 0 0 1 .828.975l4.961.829Zm6.751 18.305a4.19 4.19 0 0 1 4.11 5.012l4.93.988a9.232 9.232 0 0 0-1.912-7.652 9.219 9.219 0 0 0-7.128-3.372v5.024Zm-4.022 33.524a9.222 9.222 0 0 0 9.04-7.411l-4.927-.989a4.193 4.193 0 0 1-4.113 3.372v5.028Zm-9.232-58.66c-2.069 0-4.106.507-5.93 1.484a12.57 12.57 0 0 0-4.528 4.11l4.18 2.792a7.552 7.552 0 0 1 2.718-2.47 7.539 7.539 0 0 1 3.56-.889V3.167ZM11.696 56.8a4.192 4.192 0 0 1-4.19-4.19H2.478a9.218 9.218 0 0 0 9.218 9.218V56.8Z"/>
  <path fill="white" stroke="white" d="M20.233 25.293v34.52h-3.667v-34.52h3.667Z"/>
</svg>
