<svg xmlns="http://www.w3.org/2000/svg" width="64" height="65" fill="none">
  <path fill="white" d="M8 34.5a2 2 0 0 1 2-2h20a2 2 0 1 1 0 4H10a2 2 0 0 1-2-2Zm-4-10a2 2 0 0 1 2-2h16a2 2 0 1 1 0 4H6a2 2 0 0 1-2-2Z"/>
  <path fill="white" d="m59.838 33.712-6-14A2 2 0 0 0 52 18.5h-6v-4a2 2 0 0 0-2-2H12v4h30v25.112a8 8 0 0 0-3.716 4.888H25.716a8 8 0 1 0 0 4h12.568a7.96 7.96 0 0 0 15.432 0H58a2 2 0 0 0 2-2v-14c0-.27-.056-.539-.162-.788ZM18 52.5a4 4 0 1 1 0-8 4 4 0 0 1 0 8Zm28-30h4.68l4.288 10H46v-10Zm0 30a4 4 0 1 1 0-8 4 4 0 0 1 0 8Zm10-6h-2.284a7.99 7.99 0 0 0-7.716-6v-4h10v10Z"/>
</svg>
