<svg width="44" height="44" viewBox="0 0 44 44" fill="none" xmlns="http://www.w3.org/2000/svg">
<circle cx="22" cy="22" r="21.5" stroke="white" stroke-opacity="0.3"/>
<path d="M15.6749 21.453C19.612 19.6654 22.2373 18.487 23.5509 17.9176C27.3014 16.2919 28.0808 16.0095 28.5887 16.0001C28.7004 15.9981 28.9502 16.027 29.112 16.1638C29.2487 16.2794 29.2863 16.4354 29.3043 16.545C29.3222 16.6545 29.3446 16.904 29.3268 17.099C29.1236 19.3244 28.2442 24.725 27.7968 27.2175C27.6074 28.2722 27.2347 28.6258 26.8738 28.6604C26.0895 28.7356 25.494 28.1203 24.7344 27.6014C23.5457 26.7894 22.8742 26.2839 21.7205 25.4916C20.3871 24.5759 21.2515 24.0726 22.0113 23.2501C22.2102 23.0349 25.6657 19.7594 25.7326 19.4623C25.741 19.4251 25.7488 19.2866 25.6698 19.2135C25.5908 19.1403 25.4743 19.1653 25.3902 19.1852C25.2709 19.2134 23.3721 20.5214 19.6936 23.109C19.1546 23.4947 18.6664 23.6826 18.229 23.6728C17.7468 23.6619 16.8192 23.3887 16.1297 23.1551C15.2839 22.8686 14.6117 22.7171 14.6702 22.2305C14.7007 21.9771 15.0356 21.7179 15.6749 21.453Z" fill="#F4F4F5"/>
</svg>
