<svg width="44" height="44" viewBox="0 0 44 44" fill="none" xmlns="http://www.w3.org/2000/svg">
<circle cx="22" cy="22" r="21.5" stroke="white" stroke-opacity="0.3"/>
<path fill-rule="evenodd" clip-rule="evenodd" d="M29.8703 17.4613C29.985 17.0515 29.8703 16.7503 29.3244 16.7503H27.5192C27.0602 16.7503 26.8488 17.0104 26.734 17.2974C26.734 17.2974 25.816 19.6948 24.5155 21.2522C24.0948 21.703 23.9036 21.8462 23.6741 21.8462C23.5593 21.8462 23.3933 21.703 23.3933 21.2932V17.4613C23.3933 16.9694 23.2601 16.7503 22.8775 16.7503H20.0409C19.7542 16.7503 19.5817 16.9785 19.5817 17.1949C19.5817 17.6612 20.2318 17.7687 20.2988 19.08V21.9284C20.2988 22.5529 20.1936 22.6662 19.9641 22.6662C19.3522 22.6662 17.8637 20.2578 16.9808 17.5023C16.8077 16.9666 16.6342 16.7503 16.1728 16.7503H14.3677C13.852 16.7503 13.7488 17.0104 13.7488 17.2974C13.7488 17.8097 14.3609 20.3507 16.5983 23.7112C18.0901 26.006 20.1915 27.2503 22.1039 27.2503C23.2514 27.2503 23.3933 26.974 23.3933 26.498V24.7634C23.3933 24.2108 23.502 24.1006 23.8652 24.1006C24.1331 24.1006 24.592 24.244 25.6631 25.3505C26.8869 26.6617 27.0886 27.2503 27.7771 27.2503H29.5822C30.098 27.2503 30.3558 26.974 30.207 26.4287C30.0443 25.8852 29.46 25.0968 28.6846 24.162C28.2638 23.6292 27.6327 23.0554 27.4416 22.7686C27.1738 22.3997 27.2503 22.2358 27.4416 21.9081C27.4416 21.9081 29.6408 18.5885 29.8703 17.4614V17.4613Z" fill="#F4F4F5"/>
</svg>
