<svg xmlns="http://www.w3.org/2000/svg">
   <symbol id="icon-cart" xmlns="http://www.w3.org/2000/svg" width="24" height="24" fill="none">
      <path fill="currentColor" fill-rule="evenodd" d="M0 2.808C0 2.362.366 2 .818 2h1.91c.375 0 .702.252.793.612l.663 2.619h18.998c.252 0 .49.114.645.31a.8.8 0 0 1 .149.693l-2.728 10.77a.816.816 0 0 1-.794.611H6.274a.816.816 0 0 1-.794-.611L2.089 3.615H.818A.813.813 0 0 1 0 2.808Zm4.593 4.038L6.912 16h12.904l2.318-9.154H4.594Zm1.68 12.924a.813.813 0 0 0-.818.807c0 .446.366.808.818.808a.813.813 0 0 0 .818-.808.813.813 0 0 0-.818-.808Zm-2.455.807c0-1.338 1.1-2.423 2.455-2.423s2.454 1.085 2.454 2.423S7.628 23 6.273 23c-1.356 0-2.455-1.085-2.455-2.423Zm16.636-.807a.813.813 0 0 0-.818.807c0 .446.367.808.819.808a.813.813 0 0 0 .818-.808.813.813 0 0 0-.819-.808ZM18 20.576c0-1.338 1.099-2.423 2.454-2.423 1.356 0 2.455 1.085 2.455 2.423S21.81 23 20.455 23C19.098 23 18 21.915 18 20.577Z" clip-rule="evenodd"/>
   </symbol>

   <symbol id="icon-catalog" xmlns="http://www.w3.org/2000/svg" width="12" height="12" fill="none">
      <path fill="currentColor" d="M0 .75A.75.75 0 0 1 .75 0H4.5a.75.75 0 0 1 .75.75V4.5a.75.75 0 0 1-.75.75H.75A.75.75 0 0 1 0 4.5V.75ZM0 7.5a.75.75 0 0 1 .75-.75H4.5a.75.75 0 0 1 .75.75v3.75a.75.75 0 0 1-.75.75H.75a.75.75 0 0 1-.75-.75V7.5ZM6.75.75A.75.75 0 0 1 7.5 0h3.75a.75.75 0 0 1 .75.75V4.5a.75.75 0 0 1-.75.75H7.5a.75.75 0 0 1-.75-.75V.75Zm0 6.75a.75.75 0 0 1 .75-.75h3.75a.75.75 0 0 1 .75.75v3.75a.75.75 0 0 1-.75.75H7.5a.75.75 0 0 1-.75-.75V7.5Z"/>
   </symbol>

   <symbol id="icon-certificate" xmlns="http://www.w3.org/2000/svg" width="64" height="65" fill="none">
      <path fill="currentColor" d="M12.8 10.102a6.4 6.4 0 0 0-6.4 6.4v11.747a14.482 14.482 0 0 1 3.2-2.922v-8.825a3.2 3.2 0 0 1 3.2-3.2h38.4a3.2 3.2 0 0 1 3.2 3.2v25.6a3.2 3.2 0 0 1-3.2 3.2H29.575c-.244.36-.502.712-.775 1.052v2.148h22.4a6.4 6.4 0 0 0 6.4-6.4v-25.6a6.4 6.4 0 0 0-6.4-6.4H12.8Zm3.2 11.2a1.6 1.6 0 0 1 1.6-1.6h28.8a1.6 1.6 0 1 1 0 3.2H17.6a1.6 1.6 0 0 1-1.6-1.6Zm1.6 27.2a11.2 11.2 0 1 1 0-22.4 11.2 11.2 0 0 1 0 22.4Zm-8 .774a14.4 14.4 0 0 0 8 2.426c2.96 0 5.712-.896 8-2.426v8.826a1.6 1.6 0 0 1-2.56 1.28l-4.48-3.36a1.6 1.6 0 0 0-1.92 0l-4.48 3.36a1.6 1.6 0 0 1-2.56-1.28v-8.826Zm24-16.774a1.6 1.6 0 1 0 0 3.2h12.8a1.6 1.6 0 0 0 0-3.2H33.6Z"/>
   </symbol>

   <symbol id="icon-comparison" xmlns="http://www.w3.org/2000/svg" width="26" height="22" fill="none">
      <path fill="currentColor" d="m25.95 11.675-3.783-9.361a.715.715 0 0 0-.81-.425L13.709 3.57V.702a.699.699 0 0 0-.208-.496.713.713 0 0 0-1.002 0 .699.699 0 0 0-.208.496v3.182L4.337 5.639a.712.712 0 0 0-.504.425L.05 15.426a.708.708 0 0 0-.05.254c0 2.558 2.755 3.51 4.49 3.51 1.737 0 4.492-.952 4.492-3.51a.708.708 0 0 0-.051-.261L5.459 6.826l6.832-1.504v15.274h-2.127a.713.713 0 0 0-.502.205.699.699 0 0 0 0 .993.713.713 0 0 0 .502.206h5.672a.713.713 0 0 0 .502-.206.7.7 0 0 0-.502-1.198H13.71V5.01l6.643-1.462-3.283 8.127a.708.708 0 0 0-.05.261c0 2.558 2.754 3.51 4.49 3.51 1.736 0 4.491-.952 4.491-3.51a.708.708 0 0 0-.05-.26ZM4.49 17.787a4.394 4.394 0 0 1-2.065-.533c-.635-.367-.963-.84-1.003-1.448L4.494 8.21l3.073 7.596c-.114 1.613-2.298 1.981-3.076 1.981Zm17.02-3.744a4.396 4.396 0 0 1-2.067-.534c-.634-.366-.963-.84-1.003-1.448l3.073-7.595 3.072 7.595c-.114 1.613-2.298 1.982-3.076 1.982Z"/>
   </symbol>

   <symbol id="icon-delivery" xmlns="http://www.w3.org/2000/svg" width="64" height="65" fill="none">
      <path fill="currentColor" d="M8 34.5a2 2 0 0 1 2-2h20a2 2 0 1 1 0 4H10a2 2 0 0 1-2-2Zm-4-10a2 2 0 0 1 2-2h16a2 2 0 1 1 0 4H6a2 2 0 0 1-2-2Z"/>
      <path fill="currentColor" d="m59.838 33.712-6-14A2 2 0 0 0 52 18.5h-6v-4a2 2 0 0 0-2-2H12v4h30v25.112a8 8 0 0 0-3.716 4.888H25.716a8 8 0 1 0 0 4h12.568a7.96 7.96 0 0 0 15.432 0H58a2 2 0 0 0 2-2v-14c0-.27-.056-.539-.162-.788ZM18 52.5a4 4 0 1 1 0-8 4 4 0 0 1 0 8Zm28-30h4.68l4.288 10H46v-10Zm0 30a4 4 0 1 1 0-8 4 4 0 0 1 0 8Zm10-6h-2.284a7.99 7.99 0 0 0-7.716-6v-4h10v10Z"/>
   </symbol>

   <symbol id="icon-discount" xmlns="http://www.w3.org/2000/svg" width="64" height="65" fill="none">
      <path fill="currentColor" stroke="currentColor" stroke-linecap="round" stroke-linejoin="round" d="M38.393 23.137a2.11 2.11 0 0 1 2.822.145l.144.16a2.11 2.11 0 0 1 0 2.663l-.144.16-15.448 15.448a2.109 2.109 0 0 1-2.823.144l-.16-.144a2.109 2.109 0 0 1 0-2.983l15.448-15.448.16-.145Zm1.33 14.975a2.11 2.11 0 0 1 0 4.22h-.026a2.11 2.11 0 0 1 0-4.22h.027ZM24.302 22.664a2.11 2.11 0 0 1 0 4.219h-.026a2.11 2.11 0 0 1 0-4.219h.026Z"/>
      <path fill="currentColor" fill-rule="evenodd" d="M32.478 3.178a8.091 8.091 0 0 0-.96 0l-.042.003c-1.526.117-2.737.808-3.783 1.627-.967.757-2.027 1.817-3.219 3.009l-.105.106c-1.186 1.185-1.41 1.36-1.563 1.436l-.175.073c-.17.055-.472.088-2.12.088h-.461c-1.866 0-3.526 0-4.866.18-1.457.196-2.927.647-4.13 1.847-1.207 1.204-1.658 2.678-1.853 4.135-.18 1.336-.179 2.99-.179 4.847v.479c0 1.724-.037 1.976-.095 2.139a3.772 3.772 0 0 1-.056.136c-.076.16-.23.368-1.446 1.584l-.106.106c-1.192 1.191-2.252 2.251-3.01 3.219-.818 1.045-1.51 2.256-1.626 3.782l-.003.042c-.019.32-.019.64 0 .96l.003.043c.117 1.526.808 2.737 1.627 3.782.757.968 1.817 2.027 3.009 3.22l.106.105c1.254 1.254 1.377 1.433 1.448 1.589l.007.014c.015.033.03.068.043.104.062.167.1.398.1 2.151v.46c0 1.866-.001 3.526.179 4.867.196 1.456.647 2.927 1.847 4.13 1.204 1.206 2.678 1.657 4.135 1.853 1.336.179 2.99.178 4.847.178h.48c1.768 0 1.987.04 2.15.1l.007.003c.036.013.068.026.098.04l.006.003c.163.075.349.204 1.597 1.452l.106.106c1.191 1.192 2.251 2.252 3.218 3.01 1.046.817 2.257 1.51 3.783 1.625h.003a6.93 6.93 0 0 0 1.039 0h.003c1.526-.116 2.737-.808 3.782-1.626.968-.757 2.027-1.817 3.219-3.01l.106-.105c1.248-1.248 1.434-1.377 1.596-1.452l.007-.003c.033-.016.068-.03.104-.044.167-.06.399-.099 2.151-.099h.46c1.867 0 3.526 0 4.867-.18 1.456-.195 2.927-.646 4.13-1.847 1.206-1.203 1.657-2.677 1.853-4.134.179-1.336.178-2.99.178-4.847v-.48c0-1.769.04-1.987.1-2.15l.003-.008c.013-.035.026-.068.04-.097l.003-.007c.075-.162.204-.348 1.452-1.596l.106-.106c1.192-1.192 2.252-2.252 3.009-3.219.818-1.045 1.51-2.256 1.626-3.782v-.003a6.955 6.955 0 0 0 0-1.04v-.002c-.116-1.526-.808-2.737-1.626-3.782-.757-.968-1.817-2.028-3.01-3.22l-.105-.105c-1.176-1.176-1.359-1.409-1.438-1.568l-.071-.17c-.055-.17-.089-.472-.089-2.12v-.46c0-1.867 0-3.527-.18-4.867-.195-1.457-.646-2.928-1.847-4.13-1.203-1.207-2.678-1.658-4.134-1.853-1.336-.18-2.99-.179-4.848-.179h-.479c-1.659 0-1.954-.034-2.12-.088l-.173-.072c-.159-.08-.396-.268-1.565-1.437l-.106-.106c-1.192-1.192-2.252-2.252-3.219-3.01-1.045-.818-2.256-1.51-3.782-1.626l-.043-.003Zm20.126 33.373c-.912.909-1.8 1.793-2.327 2.937l-.205.495.002-.005c-.438 1.18-.436 2.438-.433 3.714v.586c0 2.085-.005 3.381-.131 4.325-.114.85-.283 1.016-.331 1.064l-.003.003-.002.002c-.051.051-.22.22-1.071.335-.943.126-2.239.132-4.323.132h-.585c-1.281-.003-2.535-.005-3.718.433l-.01.003c-.16.06-.318.127-.474.199-1.146.527-2.03 1.415-2.94 2.328l-.196.197c-1.33 1.33-2.16 2.154-2.842 2.687-.62.485-.84.503-.896.507-.08.006-.16.006-.241 0-.056-.004-.277-.022-.897-.507-.68-.533-1.51-1.357-2.841-2.687l-.196-.197c-.91-.912-1.793-1.799-2.937-2.327a6.67 6.67 0 0 0-.49-.203c-1.181-.438-2.438-.436-3.715-.433h-.585c-2.086 0-3.382-.005-4.325-.131-.85-.114-1.016-.283-1.065-.331l-.002-.003-.003-.002c-.05-.051-.22-.22-.334-1.071-.127-.943-.132-2.239-.132-4.323v-.585c.002-1.281.005-2.535-.433-3.718l-.004-.01a6.936 6.936 0 0 0-.197-.47c-.524-1.146-1.414-2.033-2.319-2.933l-.207-.207c-1.33-1.33-2.154-2.16-2.687-2.841-.45-.575-.498-.807-.506-.882a2.666 2.666 0 0 1 0-.271c.008-.075.056-.307.506-.882.533-.68 1.357-1.51 2.687-2.841l.197-.196c.913-.91 1.802-1.796 2.33-2.944l.013-.03a8.07 8.07 0 0 0 .174-.42l.012-.03c.44-1.182.437-2.44.434-3.718v-.585c0-2.086.005-3.382.131-4.325.114-.85.282-1.017.33-1.065l.004-.002.002-.003c.05-.05.22-.22 1.071-.334.943-.127 2.238-.132 4.323-.132h.585c1.28.003 2.535.005 3.717-.433l.103-.04.293-.123.078-.034c1.149-.524 2.037-1.416 2.94-2.322l.207-.208c1.33-1.33 2.16-2.154 2.841-2.687.575-.45.807-.498.882-.506.09-.005.18-.005.27 0 .076.008.308.056.882.506.681.533 1.511 1.357 2.842 2.687l.196.196c.91.914 1.796 1.803 2.943 2.33.031.015.062.028.093.041l.296.123.092.036c1.182.44 2.44.437 3.717.434h.586c2.085 0 3.381.005 4.324.131.85.114 1.017.282 1.065.33l.003.004.003.002c.05.05.22.22.334 1.071.126.943.132 2.238.132 4.323v.585c-.003 1.28-.005 2.534.433 3.717.012.035.026.069.04.103l.123.293.037.085c.528 1.148 1.416 2.033 2.33 2.944l.197.196c1.33 1.33 2.154 2.16 2.687 2.841.485.62.503.841.507.897.006.08.006.16 0 .24-.004.056-.022.278-.507.898-.533.68-1.357 1.51-2.687 2.84l-.197.197Z" clip-rule="evenodd"/>
   </symbol>

   <symbol id="icon-facebook" xmlns="http://www.w3.org/2000/svg" width="16" height="16" fill="none">
      <path fill="currentColor" d="M9.333 9.05h1.905L12 6.25H9.333v-1.4c0-.721 0-1.4 1.524-1.4H12V1.098A23.34 23.34 0 0 0 9.823 1C7.755 1 6.286 2.16 6.286 4.29v1.96H4v2.8h2.286V15h3.047V9.05Z" opacity=".35"/>
   </symbol>

   <symbol id="icon-instagram" xmlns="http://www.w3.org/2000/svg" width="16" height="16" fill="none">
      <path fill="currentColor" d="M8 5.67C6.71 5.67 5.67 6.72 5.67 8S6.72 10.33 8 10.33 10.33 9.28 10.33 8 9.28 5.67 8 5.67ZM15 8c0-.97 0-1.92-.05-2.89-.05-1.12-.31-2.12-1.13-2.93-.82-.82-1.81-1.08-2.93-1.13C9.92 1 8.97 1 8 1c-.97 0-1.92 0-2.89.05-1.12.05-2.12.31-2.93 1.13C1.36 3 1.1 3.99 1.05 5.11 1 6.08 1 7.03 1 8c0 .97 0 1.92.05 2.89.05 1.12.31 2.12 1.13 2.93.82.82 1.81 1.08 2.93 1.13C6.08 15 7.03 15 8 15c.97 0 1.92 0 2.89-.05 1.12-.05 2.12-.31 2.93-1.13.82-.82 1.08-1.81 1.13-2.93.06-.96.05-1.92.05-2.89Zm-7 3.59A3.58 3.58 0 0 1 4.41 8c0-1.99 1.6-3.59 3.59-3.59 1.99 0 3.59 1.6 3.59 3.59 0 1.99-1.6 3.59-3.59 3.59Zm3.74-6.49c-.46 0-.84-.37-.84-.84s.37-.84.84-.84.84.37.84.84a.8.8 0 0 1-.24.59.8.8 0 0 1-.59.24l-.01.01Z" opacity=".35"/>
   </symbol>

   <symbol id="icon-telegram" xmlns="http://www.w3.org/2000/svg" width="16" height="16" fill="none">
      <path fill="currentColor" fill-rule="evenodd" d="M13.567 14.082v-.002l.015-.034L16 1.904v-.039c0-.303-.113-.567-.356-.725-.214-.139-.46-.149-.633-.136a2.184 2.184 0 0 0-.666.167l-.01.004L.853 6.443l-.004.001a1.857 1.857 0 0 0-.395.202c-.174.119-.503.398-.448.841.046.368.3.601.472.722.101.071.21.13.325.177l.026.011.008.003.005.002 2.36.791a1.42 1.42 0 0 0 .046.446l1.181 4.464a1.204 1.204 0 0 0 1.086.894 1.213 1.213 0 0 0 1.2-.737l1.844-1.964 3.168 2.419.045.02c.288.125.557.164.803.13.246-.033.44-.136.588-.252.17-.137.305-.312.395-.51l.006-.014.002-.005.001-.002Zm-9.15-4.75a.24.24 0 0 1 .105-.265l8-5.06s.47-.284.453 0c0 0 .084.05-.168.284-.239.223-5.702 5.475-6.255 6.007a.24.24 0 0 0-.062.11l-.892 3.388-1.181-4.464Z" clip-rule="evenodd" opacity=".35"/>
   </symbol>

   <svg id="icon-vk" xmlns="http://www.w3.org/2000/svg" width="20" height="16" fill="none">
      <g fill="currentColor" opacity=".35">
         <path d="M8.61 2c.701-.007 1.388.074 1.723.084 1.242.037 1.46.69 1.445 1.228-.023.787-.51 4.116.392 4.44 1.314-.73 2.196-3.001 2.837-4.44.325-.728.274-.764 1.022-.765L19 2.542c.716 0 .688-.027.917.277.533.707-1.683 3.65-2.399 4.463-1.32 1.501-.55 2.083-.337 2.289.986.956 1.938 1.947 2.53 2.862.47.727.276 1.404-.322 1.43l-3.187.136c-1.058.045-2.702-1.927-2.965-2.356-.212-.355-1.235-.799-1.331.107l-.135 1.264c-.098.903-.74.882-1.245.905-3.504.157-4.698-1.23-6.462-3.277a.116.116 0 0 1-.003-.004C2.768 8.735 1.533 6.82.51 4.528.204 3.84.042 3.336 0 2.802c.515-.418 2.322-.238 3.535-.266.332-.007.556.19.731.584.683 1.537 1.429 3.047 2.415 4.381.43.412.81.563.999-.274.11-.01.101-1.396.107-2.441.005-.718-.076-1.579-1.245-1.976.236-.644 1.165-.8 2.067-.81Z"/>
         <path d="M8.61 2c.701-.007 1.388.074 1.723.084 1.242.037 1.46.69 1.445 1.228-.023.787-.51 4.116.392 4.44 1.314-.73 2.196-3.001 2.837-4.44.325-.728.274-.764 1.022-.765L19 2.542c.716 0 .688-.027.917.277.533.707-1.683 3.65-2.399 4.463-1.32 1.501-.55 2.083-.337 2.289.986.956 1.938 1.947 2.53 2.862.47.727.276 1.404-.322 1.43l-3.187.136c-1.058.045-2.702-1.927-2.965-2.356-.212-.355-1.235-.799-1.331.107l-.135 1.264c-.098.903-.74.882-1.245.905-3.504.157-4.698-1.23-6.462-3.277l-.003-.004C2.768 8.735 1.533 6.82.51 4.528.204 3.84.042 3.336 0 2.802c.515-.418 2.322-.238 3.535-.266.332-.007.556.19.731.584.683 1.537 1.429 3.047 2.415 4.381.43.412.81.563.999-.274.11-.01.101-1.396.107-2.441.005-.718-.076-1.579-1.245-1.976.236-.644 1.165-.8 2.067-.81Z"/>
      </g>
   </svg>

   <symbol id="icon-heart" xmlns="http://www.w3.org/2000/svg" width="24" height="24" fill="none">
      <path fill="currentColor" fill-rule="evenodd" d="M4.883 3.222c-1.852.89-3.209 3.011-3.209 5.54 0 2.582 1.005 4.573 2.443 6.28 1.186 1.405 2.622 2.571 4.022 3.707.333.27.662.54.988.808.587.488 1.11.915 1.616 1.226.506.312.911.453 1.257.453.346 0 .752-.141 1.257-.453.506-.311 1.03-.738 1.616-1.226.325-.27.655-.538.988-.807 1.4-1.138 2.836-2.303 4.022-3.709 1.439-1.706 2.443-3.697 2.443-6.28 0-2.527-1.357-4.648-3.209-5.54-1.799-.865-4.217-.636-6.514 1.878a.837.837 0 0 1-.275.2.801.801 0 0 1-.93-.2C9.1 2.585 6.681 2.356 4.882 3.222ZM12 3.264C9.42.831 6.53.49 4.186 1.618 1.715 2.81 0 5.575 0 8.763c0 3.132 1.24 5.523 2.865 7.45 1.302 1.544 2.895 2.835 4.303 3.976.32.258.627.51.922.754.572.475 1.186.98 1.808 1.363C10.52 22.69 11.23 23 12 23c.77 0 1.48-.311 2.102-.694.623-.383 1.236-.888 1.808-1.363.295-.244.602-.496.922-.755 1.407-1.14 3-2.432 4.302-3.975C22.761 14.286 24 11.895 24 8.763c0-3.188-1.713-5.952-4.186-7.143C17.471.492 14.581.832 12 3.264Z" clip-rule="evenodd"/>
   </symbol>

   <symbol id="icon-join" xmlns="http://www.w3.org/2000/svg" width="24" height="24" fill="none">
         <path d="M240 0C107.453 0 0 107.453 0 240s107.453 240 240 240c7.23 0 14.434-.324 21.602-.969 6.664-.597 13.27-1.511 19.824-2.656l2.52-.445c121.863-22.743 206.359-134.551 194.96-257.996C467.508 94.488 363.97.039 240 0zm-19.281 463.152h-.567a221.883 221.883 0 0 1-18.52-2.449c-.35-.062-.702-.101-1.046-.168a223.092 223.092 0 0 1-17.77-3.95l-1.418-.362a223.244 223.244 0 0 1-16.949-5.352c-.578-.207-1.16-.39-1.738-.605-5.465-2.008-10.832-4.258-16.117-6.692-.656-.293-1.313-.574-1.969-.887-5.184-2.398-10.266-5.101-15.25-7.945a564.15 564.15 0 0 0-2.117-1.191 226.827 226.827 0 0 1-14.403-9.176c-.71-.496-1.43-.977-2.136-1.473a224.986 224.986 0 0 1-13.512-10.398L96 411.449V344c.059-48.578 39.422-87.941 88-88h112c48.578.059 87.941 39.422 88 88v67.457l-1.063.887a217.439 217.439 0 0 1-13.777 10.601c-.625.438-1.258.856-1.879 1.285a223.69 223.69 0 0 1-14.625 9.336c-.625.364-1.265.707-1.886 1.067-5.06 2.879-10.204 5.597-15.45 8.047-.601.28-1.207.543-1.816.8a220.521 220.521 0 0 1-16.246 6.743c-.547.203-1.098.379-1.602.57-5.601 2.008-11.281 3.824-17.031 5.383l-1.379.344a225.353 225.353 0 0 1-17.789 3.96c-.344.063-.687.106-1.031.16a222.58 222.58 0 0 1-18.54 2.458h-.566c-6.398.55-12.8.847-19.28.847-6.481 0-12.935-.242-19.321-.793zM400 396.625V344c-.066-57.41-46.59-103.934-104-104H184c-57.41.066-103.934 46.59-104 104v52.617C-6.164 308.676-5.203 167.68 82.148 80.918 169.5-5.84 310.5-5.84 397.852 80.918c87.351 86.762 88.312 227.758 2.148 315.7zm0 0"/>
         <path d="M240 64c-44.184 0-80 35.816-80 80s35.816 80 80 80 80-35.816 80-80c-.047-44.164-35.836-79.953-80-80zm0 144c-35.348 0-64-28.652-64-64s28.652-64 64-64 64 28.652 64 64c-.04 35.328-28.672 63.96-64 64zm0 0"/>
   </symbol>

   <symbol id="icon-like" xmlns="http://www.w3.org/2000/svg" width="64" height="65" fill="none">
      <path fill="currentColor" d="m41.864 25.794-2.48-.413a2.517 2.517 0 0 0 2.48 2.927v-2.514Zm-36.872 0V23.28a2.514 2.514 0 0 0-2.514 2.514h2.514Zm6.704 36.034h38.079V56.8h-38.08v5.028ZM53.797 23.28H41.864v5.028h11.933V23.28Zm-9.452 2.926 2.701-16.207-4.96-.828-2.703 16.21 4.962.825ZM41.26 3.167h-.718v5.028h.714l.004-5.028ZM30.08 8.765l-8.43 12.648 4.184 2.788 8.43-12.647-4.183-2.789ZM18.166 23.28H4.992v5.028h13.173V23.28ZM2.478 25.794V52.61h5.028V25.794H2.478ZM58.815 54.42l4.023-20.112-4.928-.989-4.022 20.112 4.927.99ZM21.651 21.413a4.19 4.19 0 0 1-3.486 1.864v5.027a9.214 9.214 0 0 0 7.67-4.102l-4.184-2.79ZM47.046 9.999a5.88 5.88 0 0 0-1.31-4.758 5.866 5.866 0 0 0-4.475-2.074l-.004 5.028a.837.837 0 0 1 .828.975l4.961.829Zm6.751 18.305a4.19 4.19 0 0 1 4.11 5.012l4.93.988a9.232 9.232 0 0 0-1.912-7.652 9.219 9.219 0 0 0-7.128-3.372v5.024Zm-4.022 33.524a9.222 9.222 0 0 0 9.04-7.411l-4.927-.989a4.193 4.193 0 0 1-4.113 3.372v5.028Zm-9.232-58.66c-2.069 0-4.106.507-5.93 1.484a12.57 12.57 0 0 0-4.528 4.11l4.18 2.792a7.552 7.552 0 0 1 2.718-2.47 7.539 7.539 0 0 1 3.56-.889V3.167ZM11.696 56.8a4.192 4.192 0 0 1-4.19-4.19H2.478a9.218 9.218 0 0 0 9.218 9.218V56.8Z"/>
      <path fill="currentColor" stroke="currentColor" d="M20.233 25.293v34.52h-3.667v-34.52h3.667Z"/>
   </symbol>

   <symbol id="icon-location" viewBox="0 0 15 15" fill="none" xmlns="http://www.w3.org/2000/svg">
      <path d="M1.91016 5.58941C1.91016 4.57043 2.15957 3.63137 2.65841 2.77223C3.13729 1.92308 3.79077 1.25375 4.61883 0.764236C5.46685 0.254745 6.3872 0 7.37989 0C8.37257 0 9.29292 0.254745 10.1409 0.764236C10.969 1.25375 11.6275 1.92308 12.1163 2.77223C12.6152 3.64136 12.8646 4.58042 12.8646 5.58941C12.8646 7.40759 12.0016 9.50549 10.2756 11.8831C9.50742 12.9421 8.65441 13.9361 7.7166 14.8651C7.62681 14.955 7.51457 15 7.37989 15C7.2452 15 7.12797 14.95 7.02821 14.8501C6.11035 13.8911 5.26233 12.8721 4.48415 11.7932C2.76815 9.38561 1.91016 7.31768 1.91016 5.58941ZM4.70862 5.3047C4.70862 5.79421 4.82834 6.24376 5.06778 6.65335C5.30722 7.06294 5.63147 7.38761 6.04051 7.62737C6.44956 7.86713 6.89602 7.98701 7.37989 7.98701C7.86376 7.98701 8.31021 7.86713 8.71926 7.62737C9.1283 7.38761 9.45504 7.06294 9.69947 6.65335C9.9439 6.24376 10.0661 5.7967 10.0661 5.31219C10.0661 4.82767 9.9439 4.38062 9.69947 3.97103C9.45504 3.56144 9.1283 3.23676 8.71926 2.997C8.31021 2.75724 7.86376 2.63736 7.37989 2.63736C6.89602 2.63736 6.44956 2.75724 6.04051 2.997C5.63147 3.23676 5.30722 3.56144 5.06778 3.97103C4.82834 4.38062 4.70862 4.82518 4.70862 5.3047Z" fill="currentColor"/>
   </symbol>

   <symbol id="icon-search" width="24" height="24" viewBox="0 0 24 24" fill="none" xmlns="http://www.w3.org/2000/svg">
      <path d="M16.893 16.92L19.973 20M19 11.5C19 13.4891 18.2098 15.3968 16.8033 16.8033C15.3968 18.2098 13.4891 19 11.5 19C9.51088 19 7.60322 18.2098 6.1967 16.8033C4.79018 15.3968 4 13.4891 4 11.5C4 9.51088 4.79018 7.60322 6.1967 6.1967C7.60322 4.79018 9.51088 4 11.5 4C13.4891 4 15.3968 4.79018 16.8033 6.1967C18.2098 7.60322 19 9.51088 19 11.5Z" stroke="currentColor" stroke-width="1.5" stroke-linecap="round" stroke-linejoin="round"/>
   </symbol>

   <symbol id="icon-trash" xmlns="http://www.w3.org/2000/svg" width="24" height="24" fill="none">
      <path fill="currentColor" fill-rule="evenodd" d="m9.739 2.153-.337 2.375h5.196l-.337-2.374c-.074-.284-.283-.404-.438-.404h-3.646c-.156 0-.365.121-.438.403Zm6.374 2.375-.372-2.621a.803.803 0 0 0-.011-.062C15.528.96 14.777.25 13.823.25h-3.646c-.953 0-1.706.708-1.907 1.596a.753.753 0 0 0-.011.06l-.372 2.622H3a.75.75 0 1 0 0 1.5h18a.75.75 0 0 0 0-1.5h-4.887Zm3.16 3.059a.75.75 0 0 1 .673.82L18.938 18.67l-.003.037c-.074.75-.133 1.354-.219 1.843-.09.506-.216.946-.454 1.35a3.77 3.77 0 0 1-1.61 1.483c-.421.202-.868.287-1.374.327-.489.039-1.09.039-1.831.039h-2.894c-.741 0-1.341 0-1.831-.039-.506-.04-.952-.126-1.373-.328a3.77 3.77 0 0 1-1.612-1.484c-.237-.402-.364-.842-.453-1.348-.086-.49-.146-1.098-.22-1.85L4.053 8.406a.75.75 0 0 1 1.492-.147l1.007 10.264c.078.79.133 1.34.208 1.767.074.418.16.661.268.846.23.39.569.701.97.894.188.09.43.152.842.185.423.033.964.034 1.743.034h2.832c.78 0 1.32 0 1.743-.034.413-.033.654-.094.842-.184.4-.193.738-.503.969-.894v-.001c.11-.185.195-.428.269-.846.075-.427.13-.977.207-1.767L18.454 8.26a.75.75 0 0 1 .82-.673ZM10.2 9.417a.75.75 0 0 1 .75.75v6.11a.75.75 0 0 1-1.5 0v-6.11a.75.75 0 0 1 .75-.75Zm3.6 0a.75.75 0 0 1 .75.75v6.11a.75.75 0 0 1-1.5 0v-6.11a.75.75 0 0 1 .75-.75Z" clip-rule="evenodd"/>
   </symbol>

   <symbol id="icon-arrow" width="24" height="12" viewBox="0 0 24 12" fill="none" xmlns="http://www.w3.org/2000/svg">
      <g clip-path="url(#clip0_1_260)">
         <path fill-rule="evenodd" clip-rule="evenodd" d="M11.2894 10.1569L5.63235 4.49994L7.04635 3.08594L11.9964 8.03594L16.9464 3.08594L18.3604 4.49994L12.7034 10.1569C12.5158 10.3444 12.2615 10.4497 11.9964 10.4497C11.7312 10.4497 11.4769 10.3444 11.2894 10.1569Z" fill="white"/>
      </g>
      <defs>
         <clipPath id="clip0_1_260">
            <rect width="12" height="24" fill="white" transform="translate(24) rotate(90)"/>
         </clipPath>
      </defs>
   </symbol>

   <symbol id="icon-circle" viewBox="0 0 708 561" fill="none" xmlns="http://www.w3.org/2000/svg">
      <circle cx="354" cy="354" r="311" stroke="url(#paint0_linear_1_437)" stroke-width="86"/>
      <defs>
      <linearGradient id="paint0_linear_1_437" x1="354" y1="0" x2="354" y2="708" gradientUnits="userSpaceOnUse">
      <stop offset="0.129978" stop-color="#29C8FF"/>
      <stop offset="1" stop-color="#1A6BA6"/>
      </linearGradient>
      </defs>
   </symbol>

   <symbol id="line-right" viewBox="0 0 361 39" fill="none" xmlns="http://www.w3.org/2000/svg">
      <path d="M359.5 37.0391L325 2.53906H0" stroke="url(#paint0_linear_1_393)" stroke-width="4" stroke-dasharray="12 12"/>
      <defs>
         <linearGradient id="paint0_linear_1_393" x1="359.5" y1="19.7891" x2="0" y2="19.7891" gradientUnits="userSpaceOnUse">
            <stop stop-color="#D3EAFF" stop-opacity="0.15"/>
            <stop offset="1" stop-color="#D3EAFF" stop-opacity="0.55"/>
         </linearGradient>
      </defs>
   </symbol>

   <symbol id="line-left" width="366" height="43" viewBox="0 0 366 43" fill="none" xmlns="http://www.w3.org/2000/svg">
      <path d="M2 41.0391L40.5 2.53906H365.5" stroke="url(#paint0_linear_1_394)" stroke-width="4" stroke-dasharray="12 12"/>
      <defs>
         <linearGradient id="paint0_linear_1_394" x1="2" y1="21.7891" x2="365.5" y2="21.7891" gradientUnits="userSpaceOnUse">
            <stop stop-color="#D3EAFF" stop-opacity="0.1"/>
            <stop offset="1" stop-color="#D3EAFF" stop-opacity="0.55"/>
         </linearGradient>
      </defs>
   </symbol>





</svg>
