<svg width="16" height="14" viewBox="0 0 16 14" fill="none" xmlns="http://www.w3.org/2000/svg">
<g clip-path="url(#clip0_5_2158)">
<path d="M14.993 6.73492L10.9625 3.37492C10.878 3.30447 10.7633 3.26489 10.6437 3.26489C10.5242 3.26489 10.4095 3.30447 10.325 3.37492C10.2405 3.44537 10.193 3.54091 10.193 3.64054C10.193 3.74017 10.2405 3.83572 10.325 3.90617L13.589 6.62492H0.575C0.455653 6.62492 0.341193 6.66443 0.256802 6.73475C0.172411 6.80508 0.125 6.90046 0.125 6.99992C0.125 7.09937 0.172411 7.19476 0.256802 7.26508C0.341193 7.33541 0.455653 7.37492 0.575 7.37492H13.589L10.325 10.0937C10.2405 10.1641 10.193 10.2597 10.193 10.3593C10.193 10.4589 10.2405 10.5545 10.325 10.6249C10.4095 10.6954 10.5242 10.7349 10.6437 10.7349C10.7633 10.7349 10.878 10.6954 10.9625 10.6249L14.993 7.26492C15.0773 7.19461 15.1246 7.09929 15.1246 6.99992C15.1246 6.90054 15.0773 6.80523 14.993 6.73492Z" fill="white"/>
</g>
<defs>
<clipPath id="clip0_5_2158">
<rect width="15" height="12.5" fill="white" transform="translate(0.125 0.75)"/>
</clipPath>
</defs>
</svg>
