<svg width="40" height="40" viewBox="0 0 40 40" fill="none" xmlns="http://www.w3.org/2000/svg">
<circle cx="20" cy="20" r="20" fill="white"/>
<path d="M21.249 27H19.7021V18.9756C19.7021 18.7236 19.7021 18.4541 19.7021 18.167C19.708 17.8799 19.7139 17.5957 19.7197 17.3145C19.7314 17.0273 19.7402 16.7549 19.7461 16.4971C19.7578 16.2334 19.7666 16.002 19.7725 15.8027C19.6729 15.9082 19.585 15.999 19.5088 16.0752C19.4326 16.1514 19.3535 16.2246 19.2715 16.2949C19.1953 16.3652 19.1133 16.4414 19.0254 16.5234C18.9375 16.5996 18.832 16.6904 18.709 16.7959L17.4082 17.8594L16.5645 16.7783L19.9307 14.1504H21.249V27Z" fill="#4F6AE8"/>
</svg>
