<svg width="40" height="40" viewBox="0 0 40 40" fill="none" xmlns="http://www.w3.org/2000/svg">
<circle cx="20" cy="20" r="20" fill="white"/>
<path d="M23.4463 17.1562C23.4463 17.584 23.3789 17.9736 23.2441 18.3252C23.1094 18.6768 22.9189 18.9814 22.6729 19.2393C22.4326 19.4971 22.1426 19.7109 21.8027 19.8809C21.4629 20.0449 21.085 20.1621 20.6689 20.2324V20.2852C21.7061 20.4141 22.4941 20.7451 23.0332 21.2783C23.5723 21.8057 23.8418 22.4941 23.8418 23.3438C23.8418 23.9062 23.7451 24.4219 23.5518 24.8906C23.3643 25.3594 23.0771 25.7637 22.6904 26.1035C22.3037 26.4434 21.8145 26.707 21.2227 26.8945C20.6309 27.082 19.9307 27.1758 19.1221 27.1758C18.4834 27.1758 17.8799 27.126 17.3115 27.0264C16.749 26.9268 16.2188 26.7451 15.7207 26.4814V24.9873C16.2305 25.2568 16.7812 25.4648 17.373 25.6113C17.9707 25.7578 18.542 25.8311 19.0869 25.8311C19.626 25.8311 20.0918 25.7725 20.4844 25.6553C20.877 25.5381 21.1992 25.3711 21.4512 25.1543C21.709 24.9375 21.8965 24.6709 22.0137 24.3545C22.1367 24.0381 22.1982 23.6836 22.1982 23.291C22.1982 22.8926 22.1191 22.5527 21.9609 22.2715C21.8086 21.9844 21.5889 21.75 21.3018 21.5684C21.0146 21.3809 20.6631 21.2432 20.2471 21.1553C19.8369 21.0674 19.3711 21.0234 18.8496 21.0234H17.6807V19.6963H18.8496C19.3242 19.6963 19.7461 19.6377 20.1152 19.5205C20.4844 19.4033 20.792 19.2363 21.0381 19.0195C21.29 18.8027 21.4805 18.5449 21.6094 18.2461C21.7383 17.9473 21.8027 17.6191 21.8027 17.2617C21.8027 16.957 21.75 16.6846 21.6445 16.4443C21.5391 16.2041 21.3896 16.002 21.1963 15.8379C21.0029 15.668 20.7715 15.5391 20.502 15.4512C20.2324 15.3633 19.9336 15.3193 19.6055 15.3193C18.9785 15.3193 18.4248 15.4189 17.9443 15.6182C17.4697 15.8115 17.0156 16.0664 16.582 16.3828L15.7734 15.2842C15.9961 15.1025 16.2422 14.9326 16.5117 14.7744C16.7871 14.6162 17.0859 14.4785 17.4082 14.3613C17.7305 14.2383 18.0732 14.1416 18.4365 14.0713C18.8057 14.001 19.1953 13.9658 19.6055 13.9658C20.2383 13.9658 20.792 14.0449 21.2666 14.2031C21.7471 14.3613 22.1484 14.584 22.4707 14.8711C22.793 15.1523 23.0361 15.4893 23.2002 15.8818C23.3643 16.2686 23.4463 16.6934 23.4463 17.1562Z" fill="#4F6AE8"/>
</svg>
