<svg width="40" height="40" viewBox="0 0 40 40" fill="none" xmlns="http://www.w3.org/2000/svg">
<circle cx="20" cy="20" r="20" fill="white"/>
<path d="M23.8594 27H15.8438V25.6289L18.9199 22.2803C19.3594 21.8057 19.752 21.3721 20.0977 20.9795C20.4434 20.5869 20.7363 20.2031 20.9766 19.8281C21.2227 19.4531 21.4102 19.0781 21.5391 18.7031C21.668 18.3223 21.7324 17.9092 21.7324 17.4639C21.7324 17.1182 21.6826 16.8135 21.583 16.5498C21.4834 16.2861 21.3398 16.0635 21.1523 15.8818C20.9707 15.6943 20.7539 15.5537 20.502 15.46C20.25 15.3662 19.9688 15.3193 19.6582 15.3193C19.1016 15.3193 18.5977 15.4336 18.1465 15.6621C17.7012 15.8848 17.2764 16.1719 16.8721 16.5234L15.9756 15.4775C16.21 15.2666 16.4619 15.0703 16.7314 14.8887C17.001 14.7012 17.291 14.54 17.6016 14.4053C17.9121 14.2705 18.2402 14.165 18.5859 14.0889C18.9316 14.0068 19.2949 13.9658 19.6758 13.9658C20.2383 13.9658 20.7451 14.0449 21.1963 14.2031C21.6533 14.3613 22.04 14.5898 22.3564 14.8887C22.6729 15.1816 22.916 15.542 23.0859 15.9697C23.2617 16.3916 23.3496 16.8691 23.3496 17.4023C23.3496 17.9004 23.2705 18.375 23.1123 18.8262C22.96 19.2773 22.7461 19.7227 22.4707 20.1621C22.2012 20.5957 21.876 21.0322 21.4951 21.4717C21.1201 21.9111 20.7129 22.3682 20.2734 22.8428L17.8037 25.4707V25.541H23.8594V27Z" fill="#4F6AE8"/>
</svg>
